# xmcd
#
# Track frame offsets: 
#        150
#        35397
#        58841
#        99773
#        126990
#        157388
#        179294
#        220698
#        246407
#        275730
#        297383
#
# Disc length: 4445 seconds
#
# Revision: 0
# Processed by: cddbd v1.5.2PL0 Copyright (c) Steve Scherf et al.
# Submitted via: ExactAudioCopyFreeDBPlugin 1.0
#
DISCID=ac115b0b
DTITLE=John Primer and The Teardrops - You Can Make it If You Try
DYEAR=2014
DGENRE=Blues
TTITLE0=Sweet Man
TTITLE1=My Little Sister
TTITLE2=You Can Make It If You Try
TTITLE3=Big Fat Woman
TTITLE4=Love In Vain
TTITLE5=Don't You Hear Me Crying For You
TTITLE6=If I could Hold You In My Arms
TTITLE7=Standing At The Crossroads
TTITLE8=Things I Used To Do
TTITLE9=Corinna
TTITLE10=Long Distance Call
EXTD=
EXTT0=
EXTT1=
EXTT2=
EXTT3=
EXTT4=
EXTT5=
EXTT6=
EXTT7=
EXTT8=
EXTT9=
EXTT10=
PLAYORDER=
